<mxfile host="65bd71144e">
    <diagram id="Su3APMFwHqOE5vDtzmKQ" name="Page-1">
        <mxGraphModel dx="1539" dy="702" grid="1" gridSize="10" guides="1" tooltips="1" connect="1" arrows="1" fold="1" page="0" pageScale="1" pageWidth="850" pageHeight="1100" math="0" shadow="0">
            <root>
                <mxCell id="0"/>
                <mxCell id="1" parent="0"/>
                <mxCell id="29" style="edgeStyle=none;html=1;endSize=12;strokeWidth=2;endArrow=open;endFill=0;startArrow=diamondThin;startFill=0;startSize=12;" parent="1" source="2" target="8" edge="1">
                    <mxGeometry relative="1" as="geometry"/>
                </mxCell>
                <mxCell id="2" value="&lt;div style=&quot;color: rgb(246, 250, 253); background-color: rgb(8, 22, 32); font-family: Consolas, Consolas, &amp;quot;Courier New&amp;quot;, monospace; font-size: 14px; line-height: 19px;&quot;&gt;&lt;div style=&quot;line-height: 19px;&quot;&gt;&lt;div style=&quot;line-height: 19px;&quot;&gt;&lt;div style=&quot;line-height: 19px;&quot;&gt;&lt;span style=&quot;color: #00b4d6;font-style: italic;&quot;&gt;class&lt;/span&gt; &lt;span style=&quot;color: #f4e286;&quot;&gt;CarFactory&lt;/span&gt;&lt;/div&gt;&lt;/div&gt;&lt;/div&gt;&lt;/div&gt;" style="swimlane;fontStyle=0;childLayout=stackLayout;horizontal=1;startSize=30;horizontalStack=0;resizeParent=1;resizeParentMax=0;resizeLast=0;collapsible=1;marginBottom=0;whiteSpace=wrap;html=1;" parent="1" vertex="1">
                    <mxGeometry x="310" y="205" width="490" height="150" as="geometry"/>
                </mxCell>
                <mxCell id="5" value="&lt;div style=&quot;color: rgb(246, 250, 253); background-color: rgb(8, 22, 32); font-family: Consolas, Consolas, &amp;quot;Courier New&amp;quot;, monospace; font-size: 14px; line-height: 19px;&quot;&gt;&lt;div style=&quot;line-height: 19px;&quot;&gt;&lt;span style=&quot;color: #c28e60;font-style: italic;&quot;&gt;private&lt;/span&gt; &lt;span style=&quot;color: #b2a8b4;&quot;&gt;cars&lt;/span&gt;&lt;span style=&quot;color: #c28e60;&quot;&gt;:&lt;/span&gt; &lt;span style=&quot;color: #f4e286;&quot;&gt;{&lt;/span&gt; [&lt;span style=&quot;color: #98d4dc;&quot;&gt;key&lt;/span&gt;&lt;span style=&quot;color: #c28e60;&quot;&gt;:&lt;/span&gt; &lt;span style=&quot;color: #f4e286;&quot;&gt;string&lt;/span&gt;]&lt;span style=&quot;color: #c28e60;&quot;&gt;:&lt;/span&gt; &lt;span style=&quot;color: #d2d8d8;&quot;&gt;Car&lt;/span&gt; &lt;span style=&quot;color: #f4e286;&quot;&gt;}&lt;/span&gt; &lt;span style=&quot;color: #00b4d6;&quot;&gt;=&lt;/span&gt; &amp;lt;&lt;span style=&quot;color: #f4e286;&quot;&gt;any&lt;/span&gt;&amp;gt;&lt;span style=&quot;color: #f4e286;&quot;&gt;{};&lt;/span&gt;&lt;/div&gt;&lt;/div&gt;" style="text;strokeColor=default;fillColor=none;align=left;verticalAlign=middle;spacingLeft=4;spacingRight=4;overflow=hidden;points=[[0,0.5],[1,0.5]];portConstraint=eastwest;rotatable=0;whiteSpace=wrap;html=1;" parent="2" vertex="1">
                    <mxGeometry y="30" width="490" height="30" as="geometry"/>
                </mxCell>
                <mxCell id="27" value="&lt;div style=&quot;color: rgb(246, 250, 253); background-color: rgb(8, 22, 32); font-family: Consolas, Consolas, &amp;quot;Courier New&amp;quot;, monospace; font-size: 14px; line-height: 19px;&quot;&gt;&lt;div style=&quot;line-height: 19px;&quot;&gt;&lt;span style=&quot;color: #c28e60;font-style: italic;&quot;&gt;private&lt;/span&gt; &lt;span style=&quot;color: #f4e286;&quot;&gt;getKey(&lt;/span&gt;&lt;span style=&quot;color: #98d4dc;&quot;&gt;car&lt;/span&gt;&lt;span style=&quot;color: #c28e60;&quot;&gt;:&lt;/span&gt; &lt;span style=&quot;color: #f4e286;&quot;&gt;{&lt;/span&gt; &lt;span style=&quot;color: #b2a8b4;&quot;&gt;key&lt;/span&gt;&lt;span style=&quot;color: #c28e60;&quot;&gt;:&lt;/span&gt; &lt;span style=&quot;color: #f4e286;&quot;&gt;string&lt;/span&gt; &lt;span style=&quot;color: #f4e286;&quot;&gt;})&lt;/span&gt;&lt;span style=&quot;color: #c28e60;&quot;&gt;:&lt;/span&gt; &lt;span style=&quot;color: #f4e286;&quot;&gt;string&lt;/span&gt; &lt;span style=&quot;color: #f4e286;&quot;&gt;{...}&lt;/span&gt;&lt;/div&gt;&lt;/div&gt;" style="text;strokeColor=none;fillColor=none;align=left;verticalAlign=middle;spacingLeft=4;spacingRight=4;overflow=hidden;points=[[0,0.5],[1,0.5]];portConstraint=eastwest;rotatable=0;whiteSpace=wrap;html=1;" parent="2" vertex="1">
                    <mxGeometry y="60" width="490" height="30" as="geometry"/>
                </mxCell>
                <mxCell id="28" value="&lt;div style=&quot;color: rgb(246, 250, 253); background-color: rgb(8, 22, 32); font-family: Consolas, Consolas, &amp;quot;Courier New&amp;quot;, monospace; font-size: 14px; line-height: 19px;&quot;&gt;&lt;div style=&quot;line-height: 19px;&quot;&gt;&lt;div style=&quot;line-height: 19px;&quot;&gt;&lt;span style=&quot;color: #f4e286;&quot;&gt;getCar(&lt;/span&gt;&lt;span style=&quot;color: #98d4dc;&quot;&gt;sharedState&lt;/span&gt;&lt;span style=&quot;color: #c28e60;&quot;&gt;:&lt;/span&gt; &lt;span style=&quot;color: #f4e286;&quot;&gt;{&lt;/span&gt; &lt;span style=&quot;color: #b2a8b4;&quot;&gt;key&lt;/span&gt;&lt;span style=&quot;color: #c28e60;&quot;&gt;:&lt;/span&gt; &lt;span style=&quot;color: #f4e286;&quot;&gt;string;&lt;/span&gt; &lt;span style=&quot;color: #b2a8b4;&quot;&gt;model&lt;/span&gt;&lt;span style=&quot;color: #c28e60;&quot;&gt;:&lt;/span&gt; &lt;span style=&quot;color: #f4e286;&quot;&gt;string&lt;/span&gt; &lt;span style=&quot;color: #f4e286;&quot;&gt;})&lt;/span&gt;&lt;span style=&quot;color: #c28e60;&quot;&gt;:&lt;/span&gt; &lt;span style=&quot;color: #d2d8d8;&quot;&gt;Car&lt;/span&gt; &lt;span style=&quot;color: #f4e286;&quot;&gt;{...}&lt;/span&gt;&lt;/div&gt;&lt;/div&gt;&lt;/div&gt;" style="text;strokeColor=none;fillColor=none;align=left;verticalAlign=middle;spacingLeft=4;spacingRight=4;overflow=hidden;points=[[0,0.5],[1,0.5]];portConstraint=eastwest;rotatable=0;whiteSpace=wrap;html=1;" parent="2" vertex="1">
                    <mxGeometry y="90" width="490" height="30" as="geometry"/>
                </mxCell>
                <mxCell id="6" value="&lt;div style=&quot;color: rgb(246, 250, 253); background-color: rgb(8, 22, 32); font-family: Consolas, Consolas, &amp;quot;Courier New&amp;quot;, monospace; font-size: 14px; line-height: 19px;&quot;&gt;&lt;div style=&quot;line-height: 19px;&quot;&gt;&lt;div style=&quot;line-height: 19px;&quot;&gt;&lt;span style=&quot;color: #f4e286;&quot;&gt;listCars()&lt;/span&gt;&lt;span style=&quot;color: #c28e60;&quot;&gt;:&lt;/span&gt; &lt;span style=&quot;color: #f4e286;&quot;&gt;void&lt;/span&gt; &lt;span style=&quot;color: #f4e286;&quot;&gt;{...}&lt;/span&gt;&lt;/div&gt;&lt;/div&gt;&lt;/div&gt;" style="text;strokeColor=none;fillColor=none;align=left;verticalAlign=middle;spacingLeft=4;spacingRight=4;overflow=hidden;points=[[0,0.5],[1,0.5]];portConstraint=eastwest;rotatable=0;whiteSpace=wrap;html=1;" parent="2" vertex="1">
                    <mxGeometry y="120" width="490" height="30" as="geometry"/>
                </mxCell>
                <mxCell id="8" value="&lt;div style=&quot;color: rgb(246, 250, 253); background-color: rgb(8, 22, 32); font-family: Consolas, Consolas, &amp;quot;Courier New&amp;quot;, monospace; font-size: 14px; line-height: 19px;&quot;&gt;&lt;div style=&quot;line-height: 19px;&quot;&gt;&lt;div style=&quot;line-height: 19px;&quot;&gt;&lt;div style=&quot;line-height: 19px;&quot;&gt;&lt;span style=&quot;color: #00b4d6;font-style: italic;&quot;&gt;interface&lt;/span&gt; &lt;span style=&quot;color: #d2d8d8;&quot;&gt;Car&lt;/span&gt;&lt;/div&gt;&lt;/div&gt;&lt;/div&gt;&lt;/div&gt;" style="swimlane;fontStyle=0;childLayout=stackLayout;horizontal=1;startSize=30;horizontalStack=0;resizeParent=1;resizeParentMax=0;resizeLast=0;collapsible=1;marginBottom=0;whiteSpace=wrap;html=1;" parent="1" vertex="1">
                    <mxGeometry x="432.5" y="55" width="245" height="60" as="geometry"/>
                </mxCell>
                <mxCell id="12" value="&lt;div style=&quot;color: rgb(246, 250, 253); background-color: rgb(8, 22, 32); font-family: Consolas, Consolas, &amp;quot;Courier New&amp;quot;, monospace; font-size: 14px; line-height: 19px;&quot;&gt;&lt;div style=&quot;line-height: 19px;&quot;&gt;&lt;span style=&quot;color: #f4e286;&quot;&gt;operation()&lt;/span&gt;&lt;span style=&quot;color: #c28e60;&quot;&gt;:&lt;/span&gt; &lt;span style=&quot;color: #f4e286;&quot;&gt;void;&lt;/span&gt;&lt;/div&gt;&lt;/div&gt;" style="text;strokeColor=none;fillColor=none;align=left;verticalAlign=middle;spacingLeft=4;spacingRight=4;overflow=hidden;points=[[0,0.5],[1,0.5]];portConstraint=eastwest;rotatable=0;whiteSpace=wrap;html=1;" parent="8" vertex="1">
                    <mxGeometry y="30" width="245" height="30" as="geometry"/>
                </mxCell>
                <mxCell id="14" value="&lt;div style=&quot;color: rgb(246, 250, 253); background-color: rgb(8, 22, 32); font-family: Consolas, Consolas, &amp;quot;Courier New&amp;quot;, monospace; font-size: 14px; line-height: 19px;&quot;&gt;&lt;div style=&quot;line-height: 19px;&quot;&gt;&lt;div style=&quot;line-height: 19px;&quot;&gt;&lt;div style=&quot;line-height: 19px;&quot;&gt;&lt;span style=&quot;color: #00b4d6;font-style: italic;&quot;&gt;class&lt;/span&gt; &lt;span style=&quot;color: #f4e286;&quot;&gt;CarModel&lt;/span&gt; &lt;span style=&quot;color: #c28e60;font-style: italic;&quot;&gt;implements&lt;/span&gt; &lt;span style=&quot;color: #ecd2b4;&quot;&gt;Car&lt;/span&gt;&lt;/div&gt;&lt;/div&gt;&lt;/div&gt;&lt;/div&gt;" style="swimlane;fontStyle=0;childLayout=stackLayout;horizontal=1;startSize=30;horizontalStack=0;resizeParent=1;resizeParentMax=0;resizeLast=0;collapsible=1;marginBottom=0;whiteSpace=wrap;html=1;" parent="1" vertex="1">
                    <mxGeometry x="-135" y="40" width="300" height="90" as="geometry"/>
                </mxCell>
                <mxCell id="17" value="&lt;div style=&quot;color: rgb(246, 250, 253); background-color: rgb(8, 22, 32); font-family: Consolas, Consolas, &amp;quot;Courier New&amp;quot;, monospace; font-size: 14px; line-height: 19px;&quot;&gt;&lt;div style=&quot;line-height: 19px;&quot;&gt;&lt;span style=&quot;color: #c28e60;font-style: italic;&quot;&gt;private&lt;/span&gt; &lt;span style=&quot;color: #b2a8b4;&quot;&gt;model&lt;/span&gt;&lt;span style=&quot;color: #c28e60;&quot;&gt;:&lt;/span&gt; &lt;span style=&quot;color: #f4e286;&quot;&gt;string;&lt;/span&gt;&lt;/div&gt;&lt;/div&gt;" style="text;strokeColor=default;fillColor=none;align=left;verticalAlign=middle;spacingLeft=4;spacingRight=4;overflow=hidden;points=[[0,0.5],[1,0.5]];portConstraint=eastwest;rotatable=0;whiteSpace=wrap;html=1;" parent="14" vertex="1">
                    <mxGeometry y="30" width="300" height="30" as="geometry"/>
                </mxCell>
                <mxCell id="19" value="&lt;div style=&quot;color: rgb(246, 250, 253); background-color: rgb(8, 22, 32); font-family: Consolas, Consolas, &amp;quot;Courier New&amp;quot;, monospace; font-size: 14px; line-height: 19px;&quot;&gt;&lt;div style=&quot;line-height: 19px;&quot;&gt;&lt;span style=&quot;color: #f4e286;&quot;&gt;operation()&lt;/span&gt;&lt;span style=&quot;color: #c28e60;&quot;&gt;:&lt;/span&gt; &lt;span style=&quot;color: #f4e286;&quot;&gt;void&lt;/span&gt; &lt;span style=&quot;color: #f4e286;&quot;&gt;{...}&lt;/span&gt;&lt;/div&gt;&lt;/div&gt;" style="text;strokeColor=none;fillColor=none;align=left;verticalAlign=middle;spacingLeft=4;spacingRight=4;overflow=hidden;points=[[0,0.5],[1,0.5]];portConstraint=eastwest;rotatable=0;whiteSpace=wrap;html=1;" parent="14" vertex="1">
                    <mxGeometry y="60" width="300" height="30" as="geometry"/>
                </mxCell>
                <mxCell id="30" style="edgeStyle=none;html=1;endSize=12;strokeWidth=2;endArrow=open;endFill=0;startArrow=diamondThin;startFill=0;startSize=12;" parent="1" source="33" target="14" edge="1">
                    <mxGeometry relative="1" as="geometry">
                        <mxPoint x="110" y="250" as="sourcePoint"/>
                    </mxGeometry>
                </mxCell>
                <mxCell id="31" style="edgeStyle=none;html=1;entryX=0;entryY=0.5;entryDx=0;entryDy=0;endSize=12;strokeWidth=2;endArrow=open;endFill=0;" parent="1" source="33" target="27" edge="1">
                    <mxGeometry relative="1" as="geometry">
                        <mxPoint x="120" y="280" as="sourcePoint"/>
                    </mxGeometry>
                </mxCell>
                <mxCell id="32" style="edgeStyle=none;html=1;endSize=12;strokeWidth=2;endArrow=open;endFill=0;" parent="1" source="17" target="8" edge="1">
                    <mxGeometry relative="1" as="geometry"/>
                </mxCell>
                <mxCell id="33" value="&lt;div style=&quot;color: rgb(246, 250, 253); background-color: rgb(8, 22, 32); font-family: Consolas, Consolas, &amp;quot;Courier New&amp;quot;, monospace; font-size: 14px; line-height: 19px;&quot;&gt;&lt;div style=&quot;line-height: 19px;&quot;&gt;&lt;div style=&quot;line-height: 19px;&quot;&gt;&lt;div style=&quot;line-height: 19px;&quot;&gt;&lt;div style=&quot;line-height: 19px;&quot;&gt;&lt;span style=&quot;color: #00b4d6;font-style: italic;&quot;&gt;function&lt;/span&gt; &lt;span style=&quot;color: #f4e286;&quot;&gt;addCarToPoliceDatabase&lt;/span&gt;&lt;/div&gt;&lt;/div&gt;&lt;/div&gt;&lt;/div&gt;&lt;/div&gt;" style="swimlane;fontStyle=0;childLayout=stackLayout;horizontal=1;startSize=30;horizontalStack=0;resizeParent=1;resizeParentMax=0;resizeLast=0;collapsible=1;marginBottom=0;whiteSpace=wrap;html=1;" parent="1" vertex="1">
                    <mxGeometry x="-210" y="250" width="450" height="60" as="geometry"/>
                </mxCell>
                <mxCell id="34" value="&lt;div style=&quot;color: rgb(246, 250, 253); background-color: rgb(8, 22, 32); font-family: Consolas, Consolas, &amp;quot;Courier New&amp;quot;, monospace; font-size: 14px; line-height: 19px;&quot;&gt;&lt;div style=&quot;line-height: 19px;&quot;&gt;&lt;div style=&quot;line-height: 19px;&quot;&gt;&lt;div&gt;&lt;span style=&quot;color: #98d4dc;&quot;&gt;ff&lt;/span&gt;&lt;span style=&quot;color: #c28e60;&quot;&gt;:&lt;/span&gt; &lt;span style=&quot;color: #d2d8d8;&quot;&gt;CarFactory&lt;/span&gt;&lt;span style=&quot;color: #00b4d6;&quot;&gt;,&lt;/span&gt; &lt;span style=&quot;color: #98d4dc;&quot;&gt;owner&lt;/span&gt;&lt;span style=&quot;color: #c28e60;&quot;&gt;:&lt;/span&gt; &lt;span style=&quot;color: #f4e286;&quot;&gt;string&lt;/span&gt;&lt;span style=&quot;color: #00b4d6;&quot;&gt;,&lt;/span&gt;&lt;span style=&quot;color: rgb(152, 212, 220);&quot;&gt;key&lt;/span&gt;&lt;span style=&quot;color: rgb(194, 142, 96);&quot;&gt;:&lt;/span&gt; &lt;span style=&quot;color: rgb(244, 226, 134);&quot;&gt;string&lt;/span&gt;&lt;span style=&quot;color: rgb(0, 180, 214);&quot;&gt;,&lt;/span&gt; &lt;span style=&quot;color: rgb(152, 212, 220);&quot;&gt;model&lt;/span&gt;&lt;span style=&quot;color: rgb(194, 142, 96);&quot;&gt;:&lt;/span&gt; &lt;span style=&quot;color: rgb(244, 226, 134);&quot;&gt;string&lt;/span&gt;&lt;/div&gt;&lt;/div&gt;&lt;/div&gt;&lt;/div&gt;" style="text;strokeColor=default;fillColor=none;align=left;verticalAlign=middle;spacingLeft=4;spacingRight=4;overflow=hidden;points=[[0,0.5],[1,0.5]];portConstraint=eastwest;rotatable=0;whiteSpace=wrap;html=1;" parent="33" vertex="1">
                    <mxGeometry y="30" width="450" height="30" as="geometry"/>
                </mxCell>
            </root>
        </mxGraphModel>
    </diagram>
</mxfile>